<svg width="48" height="48" viewBox="0 0 48 48" fill="none" xmlns="http://www.w3.org/2000/svg">
<rect width="48" height="48" rx="24" fill="#FEF2F2"/>
<path d="M24 13.875C21.9975 13.875 20.0399 14.4688 18.3749 15.5814C16.7098 16.6939 15.4121 18.2752 14.6457 20.1253C13.8794 21.9754 13.6789 24.0112 14.0696 25.9753C14.4602 27.9393 15.4245 29.7435 16.8405 31.1595C18.2566 32.5755 20.0607 33.5398 22.0247 33.9305C23.9888 34.3211 26.0246 34.1206 27.8747 33.3543C29.7248 32.5879 31.3061 31.2902 32.4186 29.6251C33.5312 27.9601 34.125 26.0025 34.125 24C34.122 21.3156 33.0543 18.742 31.1562 16.8438C29.258 14.9457 26.6844 13.878 24 13.875ZM31.875 24C31.8766 25.7 31.3255 27.3544 30.3047 28.7137L19.2863 17.6953C20.4566 16.8208 21.8471 16.2891 23.3024 16.1597C24.7576 16.0303 26.2201 16.3082 27.5264 16.9624C28.8327 17.6167 29.9313 18.6214 30.6993 19.8642C31.4672 21.1071 31.8743 22.539 31.875 24ZM16.125 24C16.1234 22.3 16.6745 20.6456 17.6953 19.2863L28.7138 30.3047C27.5434 31.1792 26.1529 31.7109 24.6977 31.8403C23.2424 31.9697 21.7799 31.6918 20.4736 31.0376C19.1673 30.3834 18.0687 29.3786 17.3008 28.1358C16.5328 26.8929 16.1257 25.461 16.125 24Z" fill="#E7000B"/>
</svg>
