<svg width="48" height="48" viewBox="0 0 48 48" fill="none" xmlns="http://www.w3.org/2000/svg">
<rect width="48" height="48" rx="24" fill="#FEF2F2"/>
<path d="M17.3325 14.9937C17.2337 14.8823 17.1138 14.7916 16.9797 14.727C16.8456 14.6623 16.7 14.6249 16.5514 14.6169C16.4027 14.6089 16.2539 14.6304 16.1137 14.6804C15.9734 14.7303 15.8445 14.8076 15.7343 14.9077C15.6241 15.0078 15.5349 15.1288 15.4719 15.2636C15.4088 15.3985 15.3731 15.5445 15.3669 15.6933C15.3607 15.842 15.3841 15.9905 15.4357 16.1302C15.4873 16.2698 15.5661 16.3978 15.6675 16.5068L16.0425 16.9165C15.4353 17.0239 14.8853 17.3418 14.4889 17.8142C14.0926 18.2867 13.8753 18.8835 13.875 19.5002V30.0002C13.875 30.6964 14.1516 31.3641 14.6438 31.8564C15.1361 32.3487 15.8038 32.6252 16.5 32.6252H30.3206L30.6675 33.0068C30.8692 33.2235 31.1482 33.3519 31.444 33.3643C31.7397 33.3766 32.0285 33.2719 32.2475 33.0728C32.4666 32.8737 32.5984 32.5963 32.6143 32.3007C32.6302 32.0051 32.529 31.7151 32.3325 31.4937L17.3325 14.9937ZM21.9591 23.4312L24.75 26.4977C24.3322 26.6456 23.8801 26.6669 23.4503 26.5588C23.0205 26.4507 22.6321 26.2181 22.334 25.8902C22.0359 25.5623 21.8413 25.1536 21.7746 24.7154C21.7079 24.2773 21.7721 23.8292 21.9591 23.4274V23.4312ZM16.5 30.3752C16.4005 30.3752 16.3052 30.3357 16.2348 30.2654C16.1645 30.1951 16.125 30.0997 16.125 30.0002V19.5002C16.125 19.4008 16.1645 19.3054 16.2348 19.2351C16.3052 19.1647 16.4005 19.1252 16.5 19.1252H18.0478L20.3841 21.6949C19.7649 22.5321 19.4553 23.558 19.5079 24.5979C19.5605 25.6379 19.972 26.6273 20.6725 27.3978C21.3729 28.1682 22.3188 28.6719 23.3491 28.823C24.3793 28.9741 25.43 28.7633 26.3222 28.2265L28.275 30.3752H16.5ZM34.125 19.5002V28.3258C34.125 28.6242 34.0065 28.9104 33.7955 29.1213C33.5845 29.3323 33.2984 29.4508 33 29.4508C32.7016 29.4508 32.4155 29.3323 32.2045 29.1213C31.9935 28.9104 31.875 28.6242 31.875 28.3258V19.5002C31.875 19.4008 31.8355 19.3054 31.7652 19.2351C31.6948 19.1647 31.5995 19.1252 31.5 19.1252H28.5C28.3146 19.1255 28.132 19.0799 27.9684 18.9926C27.8048 18.9052 27.6654 18.7788 27.5625 18.6246L26.3972 16.8752H21.5681C21.2698 16.8752 20.9836 16.7567 20.7726 16.5457C20.5617 16.3347 20.4431 16.0486 20.4431 15.7502C20.4431 15.4518 20.5617 15.1657 20.7726 14.9547C20.9836 14.7437 21.2698 14.6252 21.5681 14.6252H27C27.1854 14.6249 27.368 14.6705 27.5316 14.7578C27.6952 14.8452 27.8346 14.9716 27.9375 15.1258L29.1019 16.8752H31.5C31.8447 16.8752 32.1861 16.9431 32.5045 17.075C32.823 17.207 33.1124 17.4003 33.3562 17.6441C33.5999 17.8878 33.7933 18.1772 33.9252 18.4957C34.0571 18.8142 34.125 19.1555 34.125 19.5002Z" fill="#E7000B"/>
</svg>
