<svg width="64" height="64" viewBox="0 0 64 64" fill="none" xmlns="http://www.w3.org/2000/svg">
<path d="M60.5969 37.3006L60.5783 37.3098C58.3845 38.9922 57.455 41.8551 58.2359 44.5043L58.2451 44.5229C59.4906 48.7337 56.4048 52.9814 52.0173 53.0931H51.9988C49.2288 53.1674 46.7934 54.9334 45.8731 57.5454V57.5547C44.4044 61.7003 39.4038 63.3269 35.7879 60.8264C33.5426 59.2933 30.5745 59.2133 28.2122 60.8264H28.203C24.5872 63.3176 19.5864 61.7002 18.127 57.5453C17.1985 54.9268 14.7668 53.1672 12.0015 53.0929H11.9829C7.59562 52.9813 4.5095 48.7336 5.75513 44.5228L5.76437 44.5042C6.545 41.8549 5.6155 38.9921 3.422 37.3097L3.40337 37.3004C-0.082375 34.6233 -0.082375 29.3809 3.40337 26.7039L3.422 26.6947C5.6155 25.0123 6.545 22.1493 5.75513 19.5002V19.4816C4.50012 15.2709 7.5955 11.0229 11.9829 10.9114H12.0015C14.7621 10.8371 17.2068 9.07094 18.127 6.45906V6.44981C19.5863 2.30418 24.5872 0.67756 28.203 3.17806H28.2122C30.4895 4.74894 33.5011 4.74894 35.7879 3.17806C39.4401 0.655935 44.413 2.32906 45.8731 6.44981V6.45906C46.7934 9.06169 49.2286 10.8372 51.9988 10.9114H52.0173C56.4046 11.0229 59.4906 15.2709 58.2451 19.4816L58.2359 19.5002C57.455 22.1493 58.3845 25.0123 60.5783 26.6947L60.5969 26.7039C64.0826 29.3809 64.0826 34.6234 60.5969 37.3006Z" fill="#00A63E"/>
<path d="M32.0002 49.3148C41.5628 49.3148 49.3148 41.5628 49.3148 32.0002C49.3148 22.4376 41.5628 14.6855 32.0002 14.6855C22.4376 14.6855 14.6855 22.4376 14.6855 32.0002C14.6855 41.5628 22.4376 49.3148 32.0002 49.3148Z" fill="#008236"/>
<path opacity="0.1" d="M45.2951 20.9165C42.3002 18.4527 38.4686 16.9719 34.2916 16.9719C24.7291 16.9719 16.9729 24.7281 16.9729 34.2906C16.9729 38.4676 18.4537 42.2992 20.9174 45.2941C17.1122 42.12 14.6885 37.3454 14.6885 31.9996C14.6885 22.437 22.4381 14.6875 32.0006 14.6875C37.3464 14.6875 42.121 17.1112 45.2951 20.9165Z" fill="#0F172B" fill-opacity="0.8"/>
<path d="M27.8814 38.7787L24.0525 34.7052C23.0497 33.6382 23.1015 31.9605 24.1681 30.9578C25.2347 29.9538 26.9131 30.0077 27.915 31.0739L29.7427 33.0177L37.5119 24.1379C38.4749 23.0359 40.1499 22.9242 41.2527 23.8885C42.3547 24.8529 42.466 26.5274 41.5021 27.6294L31.8077 38.7088C30.775 39.8879 28.9524 39.9188 27.8814 38.7787Z" fill="white"/>
</svg>
