<svg width="48" height="48" viewBox="0 0 48 48" fill="none" xmlns="http://www.w3.org/2000/svg">
<rect width="48" height="48" rx="24" fill="#FEFCE8"/>
<path d="M33.75 24.8115C33.5907 26.664 32.9056 28.4324 31.7753 29.9087C30.645 31.3851 29.1166 32.5079 27.3699 33.1451C25.6232 33.7823 23.7308 33.9074 21.9154 33.5056C20.1001 33.1038 18.4372 32.1919 17.1224 30.8772C15.8077 29.5625 14.8958 27.8996 14.494 26.0842C14.0923 24.2688 14.2173 22.3764 14.8545 20.6297C15.4917 18.883 16.6146 17.3546 18.0909 16.2243C19.5672 15.0941 21.3357 14.409 23.1881 14.2496C23.2866 14.2415 23.3858 14.2528 23.4799 14.283C23.574 14.3132 23.6612 14.3616 23.7366 14.4255C23.812 14.4894 23.8741 14.5676 23.9192 14.6554C23.9644 14.7433 23.9919 14.8393 24 14.9377C24.0081 15.0362 23.9968 15.1354 23.9666 15.2295C23.9364 15.3236 23.888 15.4108 23.8241 15.4862C23.7602 15.5616 23.6821 15.6237 23.5942 15.6688C23.5063 15.714 23.4104 15.7415 23.3119 15.7496C21.744 15.8843 20.2472 16.4641 18.9976 17.4206C17.748 18.3771 16.7976 19.6706 16.2583 21.149C15.7189 22.6273 15.613 24.229 15.953 25.7655C16.293 27.302 17.0648 28.7094 18.1775 29.8221C19.2903 30.9349 20.6977 31.7067 22.2342 32.0467C23.7707 32.3867 25.3723 32.2808 26.8506 31.7414C28.329 31.202 29.6225 30.2516 30.5791 29.002C31.5356 27.7524 32.1153 26.2556 32.25 24.6877C32.2664 24.4888 32.3612 24.3046 32.5134 24.1755C32.6657 24.0465 32.863 23.9832 33.0619 23.9996C33.2608 24.016 33.4451 24.1108 33.5741 24.263C33.7031 24.4153 33.7664 24.6126 33.75 24.8115ZM23.25 18.7496V23.9996C23.25 24.1985 23.329 24.3893 23.4697 24.5299C23.6103 24.6706 23.8011 24.7496 24 24.7496H29.25C29.4489 24.7496 29.6397 24.6706 29.7803 24.5299C29.921 24.3893 30 24.1985 30 23.9996C30 23.8007 29.921 23.6099 29.7803 23.4693C29.6397 23.3286 29.4489 23.2496 29.25 23.2496H24.75V18.7496C24.75 18.5507 24.671 18.3599 24.5303 18.2193C24.3897 18.0786 24.1989 17.9996 24 17.9996C23.8011 17.9996 23.6103 18.0786 23.4697 18.2193C23.329 18.3599 23.25 18.5507 23.25 18.7496ZM27 16.4996C27.2225 16.4996 27.44 16.4336 27.625 16.31C27.81 16.1864 27.9542 16.0107 28.0394 15.8051C28.1245 15.5996 28.1468 15.3734 28.1034 15.1551C28.06 14.9369 27.9528 14.7365 27.7955 14.5791C27.6382 14.4218 27.4377 14.3146 27.2195 14.2712C27.0013 14.2278 26.7751 14.2501 26.5695 14.3353C26.3639 14.4204 26.1882 14.5646 26.0646 14.7496C25.941 14.9346 25.875 15.1521 25.875 15.3746C25.875 15.673 25.9935 15.9591 26.2045 16.1701C26.4155 16.3811 26.7016 16.4996 27 16.4996ZM30.375 18.7496C30.5975 18.7496 30.815 18.6836 31 18.56C31.185 18.4364 31.3292 18.2607 31.4144 18.0551C31.4995 17.8496 31.5218 17.6234 31.4784 17.4051C31.435 17.1869 31.3278 16.9865 31.1705 16.8291C31.0132 16.6718 30.8127 16.5646 30.5945 16.5212C30.3763 16.4778 30.1501 16.5001 29.9445 16.5853C29.7389 16.6704 29.5632 16.8146 29.4396 16.9996C29.316 17.1846 29.25 17.4021 29.25 17.6246C29.25 17.923 29.3685 18.2091 29.5795 18.4201C29.7905 18.6311 30.0766 18.7496 30.375 18.7496ZM32.625 22.1246C32.8475 22.1246 33.065 22.0586 33.25 21.935C33.435 21.8114 33.5792 21.6357 33.6644 21.4301C33.7495 21.2246 33.7718 20.9984 33.7284 20.7801C33.685 20.5619 33.5778 20.3615 33.4205 20.2041C33.2632 20.0468 33.0627 19.9396 32.8445 19.8962C32.6263 19.8528 32.4001 19.8751 32.1945 19.9603C31.9889 20.0454 31.8132 20.1896 31.6896 20.3746C31.566 20.5596 31.5 20.7771 31.5 20.9996C31.5 21.298 31.6185 21.5841 31.8295 21.7951C32.0405 22.0061 32.3266 22.1246 32.625 22.1246Z" fill="#F0B100"/>
</svg>
