<svg width="48" height="48" viewBox="0 0 48 48" fill="none" xmlns="http://www.w3.org/2000/svg">
<rect width="48" height="48" rx="24" fill="#FEFCE8"/>
<path d="M34.2 29.6334L26.0016 15.3956C25.7967 15.0468 25.5042 14.7576 25.1532 14.5566C24.8021 14.3557 24.4046 14.2499 24 14.2499C23.5955 14.2499 23.198 14.3557 22.8469 14.5566C22.4958 14.7576 22.2033 15.0468 21.9985 15.3956L13.8 29.6334C13.6029 29.9708 13.499 30.3546 13.499 30.7453C13.499 31.1361 13.6029 31.5198 13.8 31.8572C14.0023 32.2081 14.2943 32.4989 14.646 32.6997C14.9977 32.9006 15.3966 33.0042 15.8016 33H32.1985C32.6032 33.0039 33.0016 32.9001 33.353 32.6993C33.7044 32.4985 33.9961 32.2078 34.1982 31.8572C34.3956 31.52 34.4998 31.1363 34.5001 30.7456C34.5004 30.3548 34.3969 29.971 34.2 29.6334ZM23.25 21.75C23.25 21.5511 23.329 21.3603 23.4697 21.2197C23.6104 21.079 23.8011 21 24 21C24.1989 21 24.3897 21.079 24.5304 21.2197C24.671 21.3603 24.75 21.5511 24.75 21.75V25.5C24.75 25.6989 24.671 25.8897 24.5304 26.0303C24.3897 26.171 24.1989 26.25 24 26.25C23.8011 26.25 23.6104 26.171 23.4697 26.0303C23.329 25.8897 23.25 25.6989 23.25 25.5V21.75ZM24 30C23.7775 30 23.56 29.934 23.375 29.8104C23.19 29.6868 23.0458 29.5111 22.9607 29.3055C22.8755 29.1 22.8532 28.8738 22.8966 28.6555C22.9401 28.4373 23.0472 28.2368 23.2045 28.0795C23.3619 27.9222 23.5623 27.815 23.7806 27.7716C23.9988 27.7282 24.225 27.7505 24.4305 27.8356C24.6361 27.9208 24.8118 28.065 24.9354 28.25C25.059 28.435 25.125 28.6525 25.125 28.875C25.125 29.1734 25.0065 29.4595 24.7955 29.6705C24.5845 29.8815 24.2984 30 24 30Z" fill="#F0B100"/>
</svg>
