<svg width="200" height="140" viewBox="0 0 200 140" fill="none" xmlns="http://www.w3.org/2000/svg">
<g clip-path="url(#clip0_114_9874)">
<path d="M200 -29H0V171H200V-29Z" fill="white"/>
<path d="M152.456 129.204C145.178 133.62 130.227 134.056 122.097 134.858C107.506 136.296 85.3236 136.504 78.5356 130.77C54.6868 110.624 52.8988 118.326 38.896 110.524C24.8344 102.69 17.1048 75.2192 32.882 63.2624C49.6524 50.5532 46.3612 42.6264 49.4936 28.7704C52.626 14.9148 68.8104 3.71238 89.6932 14.62C110.576 25.5276 130.415 -4.18202 151.037 10.2308C171.659 24.6436 171.659 46.9468 160.956 64.4416C146.086 88.7496 179.307 112.913 152.456 129.204Z" fill="#F6F6F6"/>
<path d="M172.881 47.1489H153.656C153.3 47.1489 153.012 46.8605 153.012 46.5049V23.9389C153.012 23.5833 153.3 23.2949 153.656 23.2949H172.881C173.237 23.2949 173.525 23.5833 173.525 23.9389V46.5049C173.525 46.8605 173.237 47.1489 172.881 47.1489Z" fill="#DDDDDD"/>
<path d="M171.835 45.9317H154.703C154.347 45.9317 154.059 45.6433 154.059 45.2877V25.1557C154.059 24.8001 154.347 24.5117 154.703 24.5117H171.835C172.191 24.5117 172.479 24.8001 172.479 25.1557V45.2877C172.479 45.6433 172.191 45.9317 171.835 45.9317Z" fill="white"/>
<path d="M167.384 40.7557H159.155C158.799 40.7557 158.511 40.4673 158.511 40.1117V30.3325C158.511 29.9769 158.799 29.6885 159.155 29.6885H167.384C167.74 29.6885 168.028 29.9769 168.028 30.3325V40.1117C168.028 40.4673 167.74 40.7557 167.384 40.7557Z" fill="#F6F6F6"/>
<path d="M175.202 75.312H151.335C150.98 75.312 150.691 75.0236 150.691 74.668V52.102C150.691 51.7464 150.98 51.458 151.335 51.458H175.202C175.558 51.458 175.846 51.7464 175.846 52.102V74.668C175.846 75.0236 175.558 75.312 175.202 75.312Z" fill="#DDDDDD"/>
<path d="M173.919 74.0948H152.619C152.263 74.0948 151.975 73.8064 151.975 73.4508V53.3188C151.975 52.9632 152.263 52.6748 152.619 52.6748H173.919C174.274 52.6748 174.563 52.9632 174.563 53.3188V73.4508C174.563 73.8064 174.275 74.0948 173.919 74.0948Z" fill="white"/>
<path d="M168.46 68.9188H158.078C157.722 68.9188 157.434 68.6304 157.434 68.2748V58.4956C157.434 58.14 157.722 57.8516 158.078 57.8516H168.46C168.816 57.8516 169.104 58.14 169.104 58.4956V68.2748C169.104 68.6304 168.816 68.9188 168.46 68.9188Z" fill="#F6F6F6"/>
<path d="M42.5312 50.0405V30.8149C42.5312 30.4593 42.8196 30.1709 43.1752 30.1709H65.7412C66.0968 30.1709 66.3853 30.4593 66.3853 30.8149V50.0405C66.3853 50.3961 66.0968 50.6845 65.7412 50.6845H43.1752C42.8196 50.6845 42.5312 50.3961 42.5312 50.0405Z" fill="#DDDDDD"/>
<path d="M43.748 48.9932V31.8608C43.748 31.5052 44.0364 31.2168 44.392 31.2168H64.524C64.8796 31.2168 65.168 31.5052 65.168 31.8608V48.9932C65.168 49.3488 64.8796 49.6372 64.524 49.6372H44.392C44.0364 49.6372 43.748 49.3488 43.748 48.9932Z" fill="white"/>
<path d="M48.9238 44.5421V36.3129C48.9238 35.9573 49.2122 35.6689 49.5678 35.6689H59.347C59.7026 35.6689 59.991 35.9573 59.991 36.3129V44.5421C59.991 44.8977 59.7026 45.1861 59.347 45.1861H49.5678C49.2122 45.1857 48.9238 44.8977 48.9238 44.5421Z" fill="#F6F6F6"/>
<path d="M65.6089 135.842C64.4317 133.412 62.7221 130.362 60.3293 127.086C60.0997 125.514 59.8105 121.682 61.6761 118.17C64.0937 113.619 60.4825 108.935 60.4825 108.935C60.4825 108.935 61.9849 112.424 59.8261 116.327C58.0609 119.518 58.3929 123.462 58.5729 124.795C57.4397 123.392 56.1777 121.967 54.7829 120.544C54.3313 118.953 53.5801 115.281 54.9053 111.633C56.6649 106.789 52.4361 102.655 52.4361 102.655C52.4361 102.655 54.4101 105.901 52.8165 110.066C51.5365 113.411 52.3609 117.191 52.7357 118.552C51.2241 117.152 49.5793 115.768 47.7789 114.43C46.9781 113.024 45.3397 109.595 45.7793 105.685C46.3553 100.564 41.2757 97.5357 41.2757 97.5357C41.2757 97.5357 43.9553 100.229 43.3821 104.652C42.9601 107.906 44.3401 111.098 45.1001 112.562C43.4677 111.48 41.7297 110.438 39.8729 109.454C39.4789 109.084 36.8181 106.462 36.3609 102.747C35.8661 98.7333 31.4357 97.3477 31.4357 97.3477C31.4357 97.3477 33.9725 98.9149 34.3413 102.396C34.6037 104.87 36.1389 106.993 37.0069 108.016C35.5741 107.346 34.0669 106.718 32.5065 106.123C31.3685 105.453 30.1133 104.48 29.1489 103.097C26.8341 99.7805 22.2705 100.628 22.2705 100.628C22.2705 100.628 25.2457 100.827 27.2001 103.731C27.8641 104.717 28.7485 105.498 29.6273 106.098C30.9177 106.98 32.4345 107.44 33.9817 107.484C35.4117 108.075 36.7741 108.706 38.0905 109.361C36.6665 109.126 34.5277 109.011 32.2933 109.756C28.3897 111.058 25.4773 109.108 25.4773 109.108C25.4773 109.108 29.1185 113.172 33.6537 111.744C36.8353 110.742 40.1873 111.114 41.9085 111.425C43.4657 112.34 44.9313 113.294 46.3133 114.277C44.7425 113.914 41.6921 113.487 38.4785 114.559C33.8437 116.104 29.3613 115.422 29.3613 115.422C29.3613 115.422 34.7085 118.614 40.0933 116.919C44.0689 115.668 47.7089 116.204 49.3449 116.571C51.4025 118.242 53.2349 119.962 54.8729 121.684C53.3681 121.407 48.8313 120.787 45.2089 122.518C40.8009 124.625 37.0825 122.755 37.0825 122.755C37.0825 122.755 41.9693 127.008 47.1029 124.661C51.3157 122.734 55.7417 123.822 57.1965 124.275C58.7633 126.13 60.1085 127.952 61.2529 129.679C59.6121 129.494 54.4533 129.095 50.7889 130.846C46.3809 132.953 42.6629 131.083 42.6629 131.083C42.6629 131.083 47.5497 135.337 52.6833 132.989C56.8577 131.08 61.4909 132.152 63.0773 132.62C63.7841 133.842 64.3833 134.984 64.8861 136.015L65.6089 135.842Z" fill="#518BB4"/>
<path d="M61.2067 126.671C61.2351 126.528 62.5971 119.177 60.8295 108.692C61.3851 107.008 63.0095 103.037 66.6255 100.462C71.3115 97.1246 70.0435 90.645 70.0435 90.645C70.0435 90.645 69.8019 94.8794 65.6979 97.6986C62.3423 100.004 60.7051 104.107 60.2191 105.529C59.7879 103.562 59.2395 101.509 58.5567 99.3914C58.8999 97.577 59.9827 93.5354 63.1275 90.5546C67.3027 86.5966 65.1439 80.3574 65.1439 80.3574C65.1439 80.3574 65.4947 84.5842 61.8239 87.9478C58.8759 90.649 57.8123 94.8346 57.5067 96.381C56.6963 94.2282 55.7447 92.0254 54.6151 89.7902C54.5175 87.9862 54.5931 83.7446 56.9843 80.0598C60.1159 75.2338 56.5555 69.6738 56.5555 69.6738C56.5555 69.6738 57.8867 73.7006 55.1063 77.831C53.0607 80.8694 52.8447 84.7466 52.8727 86.5878C51.7831 84.6922 50.5675 82.7842 49.2051 80.8746C48.9963 80.3082 47.6483 76.363 49.0463 72.4246C50.5567 68.1694 46.8247 64.5746 46.8247 64.5746C46.8247 64.5746 48.5755 67.4058 47.2063 71.0658C46.2327 73.6678 46.7063 76.5538 47.0619 78.0094C45.9655 76.625 44.7743 75.245 43.5131 73.8718C42.7115 72.6346 41.9439 71.0362 41.6707 69.1746C41.0155 64.7074 36.0351 63.2754 36.0351 63.2754C36.0351 63.2754 38.9067 64.9586 39.4087 68.8342C39.5791 70.151 40.0731 71.3718 40.6507 72.4098C41.4991 73.9342 42.7839 75.151 44.3067 75.9674C45.4395 77.2718 46.4851 78.5818 47.4723 79.893C46.1679 78.9478 44.0895 77.7642 41.4867 77.393C36.9391 76.7442 35.0039 73.343 35.0039 73.343C35.0039 73.343 36.6107 79.2186 41.8519 80.0574C45.5291 80.6454 48.6907 82.6902 50.2539 83.8602C51.3519 85.5514 52.3391 87.2354 53.2287 88.9066C51.8415 87.7602 49.0083 85.811 45.2647 85.2766C39.8651 84.5062 35.7299 81.587 35.7299 81.587C35.7299 81.587 39.4755 87.4442 45.6987 88.4398C50.2931 89.175 53.6599 91.5278 55.1107 92.711C56.3315 95.4066 57.3019 98.0394 58.0783 100.576C56.7135 99.5486 52.4931 96.6642 48.0119 96.5846C42.5583 96.4878 39.7795 92.7646 39.7795 92.7646C39.7795 92.7646 42.5355 99.4518 48.8339 99.6702C54.0023 99.8494 57.8791 103.145 59.1055 104.323C59.7435 106.959 60.1775 109.449 60.4579 111.745C58.9119 110.741 53.9599 107.767 49.4267 107.687C43.9735 107.59 41.1943 103.867 41.1943 103.867C41.1943 103.867 43.9503 110.554 50.2487 110.772C55.3699 110.95 59.4611 114.334 60.8115 115.593C61.2119 122.169 60.4319 126.406 60.4107 126.513L61.2067 126.671Z" fill="#518BB4"/>
<path d="M165.685 122.807C165.685 122.807 165.841 118.914 165.167 116.083C163.874 110.652 165.167 100.824 167.754 96.6214C170.34 92.4186 171.375 92.2246 171.375 92.2246C171.375 92.2246 172.991 94.617 171.569 99.5306C170.146 104.445 170.987 104.38 170.081 107.677C169.176 110.975 167.625 110.522 167.883 113.238C168.142 115.954 165.685 122.807 165.685 122.807Z" fill="#518BB4"/>
<path d="M166.913 122.613C166.846 122.954 166.46 121.061 168.853 115.307C171.245 109.552 170.986 111.169 169.37 105.091C167.753 99.0134 169.37 96.5562 169.047 91.707C168.753 87.3022 168.126 89.1378 168.268 81.0802C168.279 80.4706 169.106 80.2954 169.358 80.8506C169.703 81.6094 170.151 82.543 170.728 83.6574C172.946 87.9422 174.478 88.3774 174.866 92.9678C175.254 97.5586 173.185 100.921 174.866 104.994C176.547 109.067 172.861 108.097 172.991 111.459C173.12 114.821 168.142 116.373 166.913 122.613Z" fill="#518BB4"/>
<path d="M167.625 123.874C167.625 123.874 165.685 120.447 170.599 118.442C175.513 116.438 175.771 112.559 176.03 108.679C176.184 106.367 177.234 105.732 178.057 105.596C178.555 105.513 179.003 105.922 178.973 106.425C178.911 107.46 178.983 109.5 179.975 112.43C181.462 116.826 177.324 117.796 173.897 119.671C170.47 121.546 167.754 121.61 167.625 123.874Z" fill="#518BB4"/>
<path d="M164.004 122.774C164.004 122.774 165.944 127.559 162.97 119.218C159.996 110.877 153.272 116.115 153.66 110.102C153.887 106.577 152.737 105.363 151.746 104.961C151.207 104.743 150.672 105.291 150.902 105.826C151.523 107.268 151.876 110.071 151.689 112.098C151.466 114.521 155.211 117.02 157.604 118.054C159.996 119.089 164.004 122.774 164.004 122.774Z" fill="#518BB4"/>
<path d="M165.038 123.227C165.038 123.227 163.293 114.369 160.965 111.524C158.637 108.679 157.538 97.2345 158.314 94.9717C158.907 93.2433 160.933 86.4597 161.857 83.3521C161.967 82.9829 162.496 83.0069 162.573 83.3845C162.732 84.1705 162.994 85.3141 163.422 86.9545C164.611 91.5045 165.685 96.2005 164.133 101.632C162.582 107.063 162.775 111.783 164.069 115.727C165.361 119.671 165.038 123.227 165.038 123.227Z" fill="#518BB4"/>
<path d="M162.211 84.7354C162.211 84.7354 162.109 98.0678 161.328 103.924C160.547 109.78 164.256 116.221 164.744 120.613" stroke="#3B6295" stroke-width="0.2" stroke-miterlimit="10" stroke-linecap="round"/>
<path d="M170.834 93.0205C170.834 93.0205 167.738 103.674 167.647 106.315C167.556 108.955 165.271 122 165.685 122.807" stroke="#3B6295" stroke-width="0.2" stroke-miterlimit="10" stroke-linecap="round"/>
<path d="M178.361 106.362C178.361 106.362 176.808 108.991 177.823 113.114C178.839 117.236 167.667 119.865 167.368 123.031" stroke="#3B6295" stroke-width="0.2" stroke-miterlimit="10" stroke-linecap="round"/>
<path d="M151.903 106.098C151.903 106.098 153.372 108.067 152.91 112.038C152.565 115.008 161.215 116.579 163.007 121.119" stroke="#3B6295" stroke-width="0.2" stroke-miterlimit="10" stroke-linecap="round"/>
<path d="M169.303 83.2402C169.303 83.2402 171.713 88.8122 172.378 94.4262C173.088 100.423 171.481 102.905 172.541 106.167C173.601 109.428 167.302 118.197 167.302 120.562" stroke="#3B6295" stroke-width="0.2" stroke-miterlimit="10" stroke-linecap="round"/>
<path d="M169.66 135.774L161.28 135.799C160.984 135.8 160.734 135.581 160.695 135.288L158.876 121.492C158.83 121.139 159.104 120.826 159.46 120.826H171.247C171.598 120.826 171.871 121.133 171.831 121.482L170.243 135.253C170.209 135.549 169.958 135.773 169.66 135.774Z" fill="#2D363B"/>
<path d="M171.659 122.992H159.069L158.993 122.391H171.729L171.659 122.992Z" fill="#4B5A66"/>
<path d="M171.544 124.007H159.232L159.157 123.406H171.612L171.544 124.007Z" fill="#4B5A66"/>
<path d="M119.373 135.8H58.2266V48.12C58.2266 44.3268 61.3014 41.252 65.0946 41.252H119.373L119.373 135.8Z" fill="#C9C9C9"/>
<path d="M119.373 135.8H74.2383V47.1131C74.2383 43.8955 76.8467 41.2871 80.0643 41.2871H119.373V135.8Z" fill="#DDDDDD"/>
<path d="M111.408 125.341H82.8068C80.5564 125.341 78.7324 123.517 78.7324 121.267V49.0519C78.7324 46.8015 80.5568 44.9775 82.8068 44.9775H111.408C113.658 44.9775 115.482 46.8019 115.482 49.0519V121.267C115.482 123.517 113.658 125.341 111.408 125.341Z" fill="white"/>
<path d="M106.837 67.7792H87.1974C84.4242 67.7792 82.1758 65.5308 82.1758 62.7576V54.9396C82.1758 52.1664 84.4242 49.918 87.1974 49.918H106.837C109.611 49.918 111.859 52.1664 111.859 54.9396V62.7576C111.859 65.5308 109.611 67.7792 106.837 67.7792Z" fill="#DDDDDD"/>
<path d="M108.96 118.099H85.5193C84.9177 118.099 84.4297 117.611 84.4297 117.01V95.9988C84.4297 95.3972 84.9177 94.9092 85.5193 94.9092H108.96C109.561 94.9092 110.049 95.3972 110.049 95.9988V117.01C110.05 117.612 109.562 118.099 108.96 118.099Z" fill="#DDDDDD"/>
<path d="M117.932 86.3744H92.4658C90.6342 86.3744 89.1494 84.8896 89.1494 83.058V30.4316C89.1494 28.6 90.6342 27.1152 92.4658 27.1152H117.932C119.763 27.1152 121.248 28.6 121.248 30.4316V83.058C121.249 84.8896 119.764 86.3744 117.932 86.3744Z" fill="#C9C9C9"/>
<path d="M107.121 26.9492H122.285C125.219 26.9492 127.597 29.3276 127.597 32.2616V36.1596C127.597 36.8168 127.065 37.3492 126.407 37.3492H102.998C102.341 37.3492 101.809 36.8164 101.809 36.1596V32.2616C101.808 29.3276 104.187 26.9492 107.121 26.9492Z" fill="#DDDDDD"/>
<path d="M117.931 86.3737H98.9551C97.1235 86.3737 95.6387 84.8889 95.6387 83.0573V41.6357C95.6387 39.8041 97.1235 38.3193 98.9551 38.3193H121.248V83.0577C121.248 84.8889 119.763 86.3737 117.931 86.3737Z" fill="white"/>
<path d="M104.459 73.9862C103.907 73.9862 103.459 73.5386 103.459 72.9862V44.7178C103.459 44.1654 103.907 43.7178 104.459 43.7178C105.011 43.7178 105.459 44.1654 105.459 44.7178V72.9862C105.459 73.5382 105.011 73.9862 104.459 73.9862Z" fill="#DDDDDD"/>
<path d="M114.86 80.7578H102.543C101.732 80.7578 101.074 80.1001 101.074 79.2885V78.521C101.074 77.7098 101.732 77.0518 102.543 77.0518H114.86C115.671 77.0518 116.329 77.7094 116.329 78.521V79.2885C116.329 80.0997 115.671 80.7578 114.86 80.7578Z" fill="#DDDDDD"/>
<path d="M113.323 73.9862C112.771 73.9862 112.323 73.5386 112.323 72.9862V44.7178C112.323 44.1654 112.771 43.7178 113.323 43.7178C113.876 43.7178 114.323 44.1654 114.323 44.7178V72.9862C114.323 73.5382 113.876 73.9862 113.323 73.9862Z" fill="#DDDDDD"/>
<path d="M116.434 28.5439H118.717" stroke="#C9C9C9" stroke-width="0.2" stroke-miterlimit="10" stroke-linecap="round"/>
<path d="M104.313 31.3922C105.153 29.7106 107 28.543 109.143 28.543" stroke="#C9C9C9" stroke-width="0.2" stroke-miterlimit="10" stroke-linecap="round"/>
<path d="M103.83 35.7351V33.4307" stroke="#C9C9C9" stroke-width="0.2" stroke-miterlimit="10" stroke-linecap="round"/>
<path d="M98.0918 63.0896V57.2212V54.0384V42.9228C98.0918 41.7008 99.0826 40.71 100.305 40.71" stroke="#C9C9C9" stroke-width="0.2" stroke-miterlimit="10" stroke-linecap="round"/>
<path d="M98.0918 74.0308V68.8584" stroke="#C9C9C9" stroke-width="0.2" stroke-miterlimit="10" stroke-linecap="round"/>
<path d="M119.179 77.6113V82.1621C119.179 83.3841 118.188 84.3749 116.966 84.3749H109.431H103.363H100.305C99.0826 84.3749 98.0918 83.3841 98.0918 82.1621" stroke="#C9C9C9" stroke-width="0.2" stroke-miterlimit="10" stroke-linecap="round"/>
<path d="M119.178 53.2422V61.697V70.0522" stroke="#C9C9C9" stroke-width="0.2" stroke-miterlimit="10" stroke-linecap="round"/>
<path d="M103.264 40.709H108.436H116.965C118.187 40.709 119.178 41.6998 119.178 42.9218" stroke="#C9C9C9" stroke-width="0.2" stroke-miterlimit="10" stroke-linecap="round"/>
<path d="M126.252 34.3057C126.252 34.3057 121.799 35.3717 123.798 39.1885C123.798 39.1885 124.923 37.1797 125.664 37.7669C126.406 38.3537 126.252 34.3057 126.252 34.3057Z" fill="#2D363B"/>
<path d="M121.447 103.619C121.447 103.619 121.461 111.25 121.853 113.317C122.245 115.384 121.85 130.351 121.85 130.351C121.85 130.351 116.295 132.458 113.216 132.072C110.137 131.685 111.252 134.866 114.578 135.535C117.904 136.205 120.743 134.889 121.596 135.391C122.449 135.892 125.899 136.038 126.407 135.096C126.661 134.626 126.55 133.174 126.539 130.722C126.528 128.271 127.208 125.704 127.325 121.338C127.407 118.266 126.868 104.786 126.868 104.786L121.447 103.619Z" fill="#E8977B"/>
<path d="M131.753 103.62C131.753 103.62 131.881 111.25 132.303 113.311C132.726 115.372 132.553 130.343 132.553 130.343C132.553 130.343 127.031 132.532 123.946 132.192C120.862 131.851 122.024 135.015 125.359 135.635C128.695 136.255 131.515 134.897 132.375 135.386C133.235 135.875 136.687 135.969 137.181 135.02C137.428 134.546 136.895 132.047 136.848 129.595C136.8 127.144 137.129 124.083 137.278 122.554C137.764 117.559 137.191 104.706 137.191 104.706L131.753 103.62Z" fill="#E8977B"/>
<path d="M143.522 77.6664C144.271 75.0776 140.92 58.9941 140.92 58.9941L140.855 59.2321C140.75 58.7969 140.608 58.4049 140.41 58.0761C138.804 55.3989 136.431 53.6693 134.754 52.7005C134.735 52.6897 134.725 52.67 134.726 52.6488L135.285 39.6177C135.285 39.6049 135.281 39.5917 135.274 39.5813C132.711 35.8421 127.706 34.6568 126.055 35.4704C124.607 36.184 123.693 38.17 123.693 39.9672C123.693 40.0236 123.693 40.0804 123.694 40.1384C123.712 41.4164 122.713 42.3392 122.209 42.9644C121.706 43.59 123.336 43.9456 123.393 44.198C123.449 44.4504 123.097 45.3188 123.237 45.5084C123.379 45.698 124.047 45.7805 124.047 45.7805C124.047 45.7805 123.372 46.1892 123.449 46.5628C123.525 46.9365 123.897 46.9577 123.954 47.2977C124.01 47.6381 123.44 48.5305 124.492 49.1769C125.545 49.8233 126.729 48.5817 127.773 48.8821C128.417 49.0673 128.34 50.7593 128.186 52.0305C128.185 52.0449 128.179 52.056 128.167 52.0652C127.791 52.3628 126.576 53.186 123.769 54.0592C122.121 54.572 121.285 55.4336 120.895 56.7608C120.858 56.824 120.824 56.8933 120.796 56.9745C120.061 59.1049 121.347 72.7052 121.393 73.194C121.394 73.2029 121.392 73.2116 121.388 73.2196C118.326 79.0532 117.727 86.6748 116.233 89.2912C114.737 91.9096 113.401 93.814 115.956 96.3688C118.511 98.9236 120.075 96.9424 118.563 96.3688C117.051 95.7952 116.686 93.6053 116.791 93.3448C116.895 93.084 117.051 93.3449 117.521 94.0749C117.99 94.8049 118.668 95.2741 118.251 92.0937C117.964 89.9069 120.987 84.4264 123.428 80.0448C123.462 79.9837 123.556 80.024 123.534 80.0908C122.602 82.888 120.736 87.2281 119.918 92.8353C119.12 98.3041 117.923 105.074 117.115 107.342C116.965 107.766 117.157 108.233 117.565 108.425C119.699 109.431 127.923 110.493 139.954 107.951C140.35 107.867 140.571 107.436 140.454 107.049C140.009 105.568 138.993 102.047 138.594 99.4501C138.294 97.4988 138.818 93.6805 138.961 89.9297C138.961 89.9253 138.963 89.9212 138.964 89.9172C139.934 87.6385 142.268 81.9968 143.522 77.6664ZM139.022 73.1224C139.399 75.1473 139.671 77.4085 139.274 78.4437L137.992 81.7761C137.652 79.7853 138.257 76.5853 139.022 73.1224Z" fill="#E8977B"/>
<path d="M139.942 107.954C140.338 107.842 140.57 107.429 140.451 107.035C140.004 105.547 138.993 102.039 138.594 99.4487C138.076 96.0767 140.021 87.1275 138.205 82.5883C136.39 78.0487 143.362 62.0415 140.638 57.5023C139.865 56.2135 138.631 54.8955 137.617 54.2527C137.143 53.9515 136.524 54.2987 136.504 54.8603C136.384 58.2419 135.024 68.1655 123.484 72.4799C123.259 72.5639 123.086 72.7503 123.026 72.9823C122.994 73.1039 122.995 73.2327 123.027 73.3543C123.687 75.8627 124.15 78.0215 123.808 79.2163C123.03 81.9399 120.825 86.6091 119.918 92.8347C119.108 98.3847 117.886 105.274 117.08 107.44C116.947 107.794 117.093 108.194 117.433 108.362C119.409 109.332 128.761 111.093 139.942 107.954Z" fill="#518BB4"/>
<path d="M125.747 59.2518C125.747 59.2518 127.641 71.5634 126.031 75.1622C124.421 78.761 117.834 88.9126 118.251 92.0934C118.668 95.2738 117.99 94.8046 117.521 94.0746C117.052 93.3446 116.896 93.0838 116.791 93.3446C116.687 93.6054 117.052 95.795 118.564 96.3686C120.076 96.9422 118.512 98.9234 115.957 96.3686C113.402 93.8138 114.738 91.909 116.234 89.291C117.73 86.6726 118.328 79.0422 121.395 73.2074C121.395 73.2074 120.049 59.1434 120.797 56.9742C121.545 54.805 125.747 59.2518 125.747 59.2518Z" fill="#E8977B"/>
<path d="M126.03 75.1621C125.54 76.2589 124.587 77.9645 123.511 79.8957" stroke="#B55F48" stroke-width="0.2" stroke-miterlimit="10" stroke-linecap="round"/>
<path d="M125.746 59.252C125.746 59.252 126.941 67.0188 126.626 72.018" stroke="#B55F48" stroke-width="0.2" stroke-miterlimit="10" stroke-linecap="round"/>
<path d="M130.182 73.7109C128.945 75.1773 127.49 76.6561 125.784 78.0641" stroke="#3B6295" stroke-width="0.2" stroke-miterlimit="10" stroke-linecap="round"/>
<path d="M134.116 67.9746C133.347 69.3762 132.369 70.9286 131.14 72.5226" stroke="#3B6295" stroke-width="0.2" stroke-miterlimit="10" stroke-linecap="round"/>
<path d="M136.635 61.9893C136.635 61.9893 136.163 63.8985 134.803 66.6565" stroke="#3B6295" stroke-width="0.2" stroke-miterlimit="10" stroke-linecap="round"/>
<path d="M133.054 77.2012C131.29 79.7216 128.96 82.2032 125.885 84.3932" stroke="#3B6295" stroke-width="0.2" stroke-miterlimit="10" stroke-linecap="round"/>
<path d="M137.177 68.7305C136.669 70.3733 135.975 72.1481 135.026 73.9589" stroke="#3B6295" stroke-width="0.2" stroke-miterlimit="10" stroke-linecap="round"/>
<path d="M138.543 60.0801C138.543 60.0801 138.667 63.1353 137.567 67.3553" stroke="#3B6295" stroke-width="0.2" stroke-miterlimit="10" stroke-linecap="round"/>
<path d="M131.075 86.9453C129.071 89.5525 126.605 92.0113 123.574 94.1385" stroke="#3B6295" stroke-width="0.2" stroke-miterlimit="10" stroke-linecap="round"/>
<path d="M136.41 77.4219C135.461 79.8263 134.246 82.2843 132.69 84.6663" stroke="#3B6295" stroke-width="0.2" stroke-miterlimit="10" stroke-linecap="round"/>
<path d="M139.749 59.377C139.749 59.377 140.054 66.2738 137.452 74.4838" stroke="#3B6295" stroke-width="0.2" stroke-miterlimit="10" stroke-linecap="round"/>
<path d="M123.141 107.86C121.763 107.757 120.269 107.607 118.651 107.4" stroke="#3B6295" stroke-width="0.2" stroke-miterlimit="10" stroke-linecap="round"/>
<path d="M138.443 106.094C138.443 106.094 135.467 108.549 124.586 107.953" stroke="#3B6295" stroke-width="0.2" stroke-miterlimit="10" stroke-linecap="round"/>
<path d="M125.393 34.8674C124.647 35.5234 124.291 36.5122 124.43 37.4966C124.665 39.1694 124.975 39.7658 127.369 41.2666C131.009 43.5478 127.254 46.8482 128.966 49.4142C133.149 55.6826 127.147 54.4026 131.483 59.541C135.818 64.6794 140.794 62.607 141.117 57.2126C141.246 55.0622 138.95 52.315 140.154 49.585C141.358 46.855 140.617 43.6042 138.628 41.8774C135.577 39.2278 137.103 37.5418 134.132 34.6514C132.634 33.193 128.155 32.4414 125.393 34.8674Z" fill="#2D363B"/>
<path d="M126.531 131.387C126.531 131.387 126.693 133.735 126.976 134.545C127.26 135.355 125.391 135.805 123.494 135.598" stroke="#B55F48" stroke-width="0.2" stroke-miterlimit="10" stroke-linecap="round"/>
<path d="M125.156 41.1231C125.096 41.3039 124.915 41.4071 124.75 41.3531C124.586 41.2991 124.5 41.1091 124.56 40.9279C124.619 40.7471 124.801 40.6439 124.965 40.6979C125.13 40.7519 125.215 40.9423 125.156 41.1231Z" fill="#243139"/>
<path d="M124.578 39.6347C124.596 39.6327 124.613 39.6323 124.631 39.6335C125.503 39.6803 126.009 40.0399 126.03 40.0551C126.14 40.1351 126.146 40.2755 126.042 40.3683C125.938 40.4611 125.765 40.4719 125.655 40.3927C125.647 40.3875 125.249 40.1131 124.571 40.0767C124.42 40.0687 124.311 39.9627 124.328 39.8403C124.343 39.7331 124.45 39.6483 124.578 39.6347Z" fill="#243139"/>
<path d="M27.8457 135.648H174.494" stroke="#243139" stroke-width="0.2" stroke-miterlimit="10"/>
</g>
<defs>
<clipPath id="clip0_114_9874">
<rect width="200" height="140" fill="white"/>
</clipPath>
</defs>
</svg>
